<?xml version="1.0" encoding="UTF-8" standalone="no"?>
<svg
   xmlns:dc="http://purl.org/dc/elements/1.1/"
   xmlns:cc="http://creativecommons.org/ns#"
   xmlns:rdf="http://www.w3.org/1999/02/22-rdf-syntax-ns#"
   xmlns:svg="http://www.w3.org/2000/svg"
   xmlns="http://www.w3.org/2000/svg"
   xmlns:sodipodi="http://sodipodi.sourceforge.net/DTD/sodipodi-0.dtd"
   xmlns:inkscape="http://www.inkscape.org/namespaces/inkscape"
   inkscape:export-ydpi="140.49001"
   inkscape:export-xdpi="140.49001"
   inkscape:export-filename="/Users/pat/Sites/forum-docling/coding-for-beginners/2-design.png"
   sodipodi:docname="banner.svg"
   inkscape:version="1.1-dev (ddb55ca, 2020-02-02)"
   id="svg8"
   version="1.1"
   viewBox="0 0 216.95833 83.34375"
   height="315"
   width="820">
  <style
     id="style833"></style>
  <defs
     id="defs2">
    <marker
       inkscape:stockid="Arrow1Send"
       orient="auto"
       refY="0.0"
       refX="0.0"
       id="marker3343"
       style="overflow:visible;"
       inkscape:isstock="true">
      <path
         id="path3341"
         d="M 0.0,0.0 L 5.0,-5.0 L -12.5,0.0 L 5.0,5.0 L 0.0,0.0 z "
         style="fill-rule:evenodd;stroke:#f7e43d;stroke-width:1pt;stroke-opacity:1;fill:#f7e43d;fill-opacity:1"
         transform="scale(0.2) rotate(180) translate(6,0)" />
    </marker>
    <marker
       inkscape:collect="always"
       inkscape:isstock="true"
       style="overflow:visible;"
       id="Arrow1Send"
       refX="0.0"
       refY="0.0"
       orient="auto"
       inkscape:stockid="Arrow1Send">
      <path
         transform="scale(0.2) rotate(180) translate(6,0)"
         style="fill-rule:evenodd;stroke:#f7e43d;stroke-width:1pt;stroke-opacity:1;fill:#f7e43d;fill-opacity:1"
         d="M 0.0,0.0 L 5.0,-5.0 L -12.5,0.0 L 5.0,5.0 L 0.0,0.0 z "
         id="path2558" />
    </marker>
    <marker
       inkscape:isstock="true"
       style="overflow:visible;"
       id="Arrow1Mend"
       refX="0.0"
       refY="0.0"
       orient="auto"
       inkscape:stockid="Arrow1Mend">
      <path
         transform="scale(0.4) rotate(180) translate(10,0)"
         style="fill-rule:evenodd;stroke:#000000;stroke-width:1pt;stroke-opacity:1;fill:#000000;fill-opacity:1"
         d="M 0.0,0.0 L 5.0,-5.0 L -12.5,0.0 L 5.0,5.0 L 0.0,0.0 z "
         id="path2552" />
    </marker>
    <marker
       inkscape:isstock="true"
       style="overflow:visible;"
       id="Arrow1Lend"
       refX="0.0"
       refY="0.0"
       orient="auto"
       inkscape:stockid="Arrow1Lend">
      <path
         transform="scale(0.8) rotate(180) translate(12.5,0)"
         style="fill-rule:evenodd;stroke:#000000;stroke-width:1pt;stroke-opacity:1;fill:#000000;fill-opacity:1"
         d="M 0.0,0.0 L 5.0,-5.0 L -12.5,0.0 L 5.0,5.0 L 0.0,0.0 z "
         id="path2546" />
    </marker>
    <rect
       id="rect2217"
       height="492.27463"
       width="924.87964"
       y="365.54782"
       x="-1670.3293" />
    <filter
       height="1.1314465"
       y="-0.065723265"
       width="1.1325582"
       x="-0.066279076"
       id="filter4472"
       style="color-interpolation-filters:sRGB"
       inkscape:collect="always">
      <feGaussianBlur
         id="feGaussianBlur4474"
         stdDeviation="15.710771"
         inkscape:collect="always" />
    </filter>
  </defs>
  <sodipodi:namedview
     inkscape:window-maximized="0"
     inkscape:window-y="23"
     inkscape:window-x="16"
     inkscape:window-height="1075"
     inkscape:window-width="1728"
     width="820px"
     units="px"
     showgrid="false"
     inkscape:current-layer="layer1"
     inkscape:document-units="mm"
     inkscape:cy="157.5"
     inkscape:cx="410"
     inkscape:zoom="1.3560976"
     inkscape:pageshadow="2"
     inkscape:pageopacity="0.0"
     borderopacity="1.0"
     bordercolor="#666666"
     pagecolor="#ffffff"
     id="base" />
  <metadata
     id="metadata5">
    <rdf:RDF>
      <cc:Work
         rdf:about="">
        <dc:format>image/svg+xml</dc:format>
        <dc:type
           rdf:resource="http://purl.org/dc/dcmitype/StillImage" />
        <dc:title></dc:title>
      </cc:Work>
    </rdf:RDF>
  </metadata>
  <g
     id="layer1"
     inkscape:groupmode="layer"
     inkscape:label="Layer 1">
    <rect
       inkscape:export-ydpi="140.49001"
       inkscape:export-xdpi="140.49001"
       y="0"
       x="2.5431316e-06"
       height="83.34375"
       width="216.95833"
       id="rect835"
       style="opacity:1;fill:#2ca02c;stroke-width:7.12118;stroke-linecap:square;stop-color:#000000;fill-opacity:1" />
    <g
       inkscape:label="Layer 1"
       id="layer1-1"
       transform="matrix(0.13121238,0,0,0.13121238,209.76549,-27.056924)">
      <text
         id="text1905"
         y="-184.83502"
         x="-1380.8112"
         style="font-size:18.75px;line-height:1.25;font-family:'Fira Sans Condensed';-inkscape-font-specification:'Fira Sans Condensed, ';stroke-width:0.9375"
         xml:space="preserve"><tspan
           style="stroke-width:0.9375"
           y="-184.83502"
           x="-1380.8112"
           id="tspan1903"
           sodipodi:role="line" /></text>
      <g
         id="g1933"
         transform="translate(15.822306,33.402647)">
        <g
           id="g4193"
           transform="matrix(0.13274666,0,0,0.14420539,-1347.3334,429.18818)">
          <path
             inkscape:connector-curvature="0"
             id="path4154"
             d="M 153.42969,77.952736 920.57816,520.86611 V 1052.3622 L 153.42969,609.44878 Z"
             style="fill:#000000;fill-opacity:1;fill-rule:evenodd;stroke:none;stroke-width:1px;stroke-linecap:butt;stroke-linejoin:miter;stroke-opacity:1" />
          <path
             inkscape:connector-curvature="0"
             id="path4175"
             d="M 920.57816,1052.3622 460.28908,1318.1102 -306.85939,875.19681 153.42969,609.44879 Z"
             style="fill:#f2f2f2;fill-rule:evenodd;stroke:none;stroke-width:1px;stroke-linecap:butt;stroke-linejoin:miter;stroke-opacity:1" />
          <path
             inkscape:connector-curvature="0"
             id="path4177"
             d="m -306.85939,875.19681 v 35.43307 l 767.14847,442.91342 v -35.4331 z"
             style="fill:#e6e6e6;fill-opacity:1;fill-rule:evenodd;stroke:none;stroke-width:1px;stroke-linecap:butt;stroke-linejoin:miter;stroke-opacity:1" />
          <path
             inkscape:connector-curvature="0"
             id="path4179"
             d="m 460.28908,1353.5433 460.28908,-265.748 v -35.4331 l -460.28908,265.748 z"
             style="fill:#cccccc;fill-opacity:1;fill-rule:evenodd;stroke:none;stroke-width:1px;stroke-linecap:butt;stroke-linejoin:miter;stroke-opacity:1" />
          <path
             inkscape:connector-curvature="0"
             id="path4181"
             d="M 920.57816,520.86611 951.2641,503.14957 184.11563,60.236201 153.42969,77.952736 Z"
             style="fill:#e6e6e6;fill-opacity:1;fill-rule:evenodd;stroke:none;stroke-width:1px;stroke-linecap:butt;stroke-linejoin:miter;stroke-opacity:1" />
          <path
             inkscape:connector-curvature="0"
             id="path4185"
             d="M 153.42969,644.88186 859.20629,1052.3622 613.71878,1194.0945 -92.057816,786.61414 153.42969,644.88185 Z"
             style="fill:#b3b3b3;fill-rule:evenodd;stroke:none;stroke-width:1px;stroke-linecap:butt;stroke-linejoin:miter;stroke-opacity:1" />
          <path
             inkscape:connector-curvature="0"
             id="path4187"
             d="m 153.42969,963.77948 153.4297,88.58272 -122.74376,70.8661 -153.429691,-88.5827 z"
             style="fill:#b3b3b3;fill-opacity:1;fill-rule:evenodd;stroke:none;stroke-width:1px;stroke-linecap:butt;stroke-linejoin:miter;stroke-opacity:1" />
          <path
             inkscape:connector-curvature="0"
             id="path4189"
             d="m 184.11563,131.10234 705.77659,407.48031 v 460.6299 L 184.11563,591.73225 Z"
             style="fill:#00a1e5;fill-opacity:1;fill-rule:evenodd;stroke:none;stroke-width:1px;stroke-linecap:butt;stroke-linejoin:miter;stroke-opacity:1" />
          <path
             inkscape:connector-curvature="0"
             id="path4191"
             d="m 920.57816,520.86611 30.68594,-17.71654 v 566.92913 l -30.68594,17.7166 z"
             style="fill:#cccccc;fill-opacity:1;fill-rule:evenodd;stroke:none;stroke-width:1px;stroke-linecap:butt;stroke-linejoin:miter;stroke-opacity:1" />
          <path
             style="fill:#ffffff;fill-opacity:1;fill-rule:evenodd;stroke:none;stroke-width:0.549023px;stroke-linecap:butt;stroke-linejoin:miter;stroke-opacity:1"
             d="m 454.44266,576.45611 76.97028,115.9959 c 0,0 -51.93727,5.8863 -78.13885,5.43176 z"
             id="path1822"
             inkscape:connector-curvature="0"
             sodipodi:nodetypes="cccc" />
        </g>
        <path
           inkscape:connector-curvature="0"
           d="m -1298.7654,468.78234 c -0.2476,2.35445 -0.4869,4.71178 -0.7323,7.06598 -0.043,0.19886 0.1058,0.51543 -0.3219,0.47646 -1.6032,-0.74227 -0.7466,0.0418 -0.9059,0.19471 l -1.1082,-0.68261 c 0.07,-0.85986 0.2022,-1.68276 0.2666,-2.5477 l -1.1974,-0.73761 c -0.273,0.94494 0.1098,2.29448 -0.5703,2.98779 -1.6264,-0.75666 -0.7346,0.0502 -0.9493,0.16888 -0.2607,0.69758 0.1313,1.79777 -0.5013,2.2661 -1.6146,-0.74917 -0.7569,0.0356 -0.9606,0.16115 -0.3093,1.19164 0.046,2.7935 -0.6477,3.74839 -1.4998,-0.70045 -0.8673,-0.0759 -0.9108,0.126 -0.5211,-0.3016 -1.5519,-0.89655 -2.0732,-1.19809 -0.044,-0.15684 -0.045,-0.28917 -0.9021,-0.94295 -0.8175,-0.81996 0.8069,-0.14291 -1.05,-1.59789 -0.6832,-0.72048 0.5757,-0.24981 -0.8868,-1.44711 -0.3088,-0.27207 -0.6281,-0.55102 -0.9829,-0.85 -0.9533,-0.41691 -0.7901,-0.14051 -0.7494,0.0581 l -2.0768,-1.27934 c 0,-0.18912 0.022,-0.371 0.054,-0.54509 l -1.322,-0.80786 c 0,0.12811 0.023,0.26915 0.055,0.41741 l -1.038,-0.64409 c -0.027,-0.0806 -0.036,-0.14827 -0.054,-0.22211 l -1.2272,-0.76075 c -0.037,0.23333 -0.034,0.48897 0.028,0.78373 l -0.9712,-0.59368 c -0.057,-0.17569 -0.043,-0.31131 -0.9317,-0.99604 -0.2864,-0.36722 0.1243,-0.3081 -1.0765,-1.23428 -0.4164,-0.51325 -0.1672,-0.61695 -0.1655,-0.87325 l -0.5247,-0.32318 -0.9387,9.49634 1.4411,0.88782 c 0,-0.16128 0.011,-0.32147 0.067,-0.4476 0.3865,0.20401 1.1723,0.61991 1.5712,0.83138 l 0.6894,0.43221 -0.1108,1.12109 1.1277,0.69468 c 0,-0.0974 0,-0.18735 0.026,-0.26914 l 1.1298,0.69599 c -0.021,0.0668 -0.028,0.14175 -0.022,0.22461 l 1.1299,0.69599 c -0.01,-0.0678 0,-0.12706 0.018,-0.17911 l 1.1276,0.69466 -0.036,0.35822 1.0275,0.63294 c 0.079,-0.0503 0.1772,-0.0882 0.378,-0.0619 1.4423,0.67119 0.6279,-0.0582 1.1678,0.0529 1.0197,0.4736 0.922,0.25128 1.22,0.27593 1.5702,0.71854 0.4871,-0.20682 1.1549,-0.0485 1.8383,0.79284 0.5733,-0.3393 1,-0.42137 l 0.9252,0.56995 c 0.2161,0.24132 0.4432,0.48959 1.0887,0.99333 0.3212,0.38764 -0.1607,0.28612 1.0527,1.21954 0.4629,1.38155 -0.1338,2.11119 -0.057,3.25612 0.1796,0.3613 -0.7148,0.0675 0.8092,1.25235 0.4991,1.1355 -0.098,1.59697 0.017,2.49571 0.1573,0.34617 -0.7119,0.0647 0.8013,1.24129 0.494,1.30572 -0.1083,1.93783 -0.033,2.98655 l 0.9142,0.56321 c 0.172,0.0789 0.5156,0.23688 0.6763,0.30877 1.013,0.40955 0.6972,-0.005 0.7398,-0.19544 0.029,-0.44142 0.086,-0.86813 0.1287,-1.30213 l 1.1276,0.69466 -0.3902,3.94706 c 0.051,1.41375 -0.6286,2.37717 -0.1029,4.08174 1.7084,1.37687 0.4241,0.92022 0.7547,1.45294 l 1.1293,0.70048 c 0.2668,-2.8479 0.5616,-5.68112 0.8423,-8.52148 l 1.1278,0.69469 c -0.053,0.38214 -0.064,0.78582 -0.1154,1.16758 0.014,0.21147 -0.4548,0.12948 0.814,1.10951 0.5401,1.08041 -0.061,1.4599 0.049,2.27689 l -0.4654,4.70799 1.1301,0.69159 c 0.2445,-0.53393 -0.2345,-1.51357 0.4611,-1.76905 1.2949,0.59878 0.8841,0.13864 0.9255,-0.039 0.047,-0.82748 0.1735,-1.60573 0.2173,-2.43357 0.034,-0.18483 -0.4025,-0.66072 0.9146,-0.0486 0.8787,-0.28779 -0.082,-1.71108 0.7634,-2.01949 0.561,0.25534 0.876,0.35727 0.918,0.29041 0.1298,-1.66462 0.3251,-3.28789 0.4747,-4.94003 l 1.1281,0.69027 -0.076,0.7648 1.1296,0.696 0.1331,-1.3457 1.1298,0.696 -0.036,0.35918 1.1275,0.69464 0.1598,-1.61581 1.1293,0.7013 -0.1683,1.70294 1.1298,0.69598 c 0.1872,-0.31599 -0.2363,-1.00868 0.3578,-1.07365 1.9376,0.75888 0.4991,-0.57553 1.0136,-0.69846 l 1.0733,0.66112 c 0.02,0.15228 -0.027,0.26566 0.908,0.97744 0.4178,0.49818 0.1599,0.58094 0.1719,0.83004 l 1.1276,0.69468 c 0,-0.11246 0.01,-0.21681 0.031,-0.3137 l 1.13,0.69602 -0.044,0.44827 1.1274,0.69464 c 0,-0.12771 0.011,-0.24745 0.036,-0.35916 l 1.1297,0.69598 -0.058,0.5828 0.8358,0.51495 c 0.2906,0.0866 0.5929,0.18188 1.0183,0.35305 0.2762,0.11415 0.552,0.22835 0.8514,0.35812 1.8732,0.79957 -0.4972,-1.0291 1.6588,-0.0525 0.4353,0.0818 0.3409,-0.16425 0.1229,-0.48536 0.6751,0.44251 2.0011,1.31315 2.6652,1.74887 -0.3971,-0.58678 -0.037,-0.70803 -0.095,-1.0862 l 1.1276,0.69468 -0.195,1.97207 1.1298,0.69606 c 0,-0.12766 0.011,-0.24697 0.036,-0.35917 l 1.1299,0.69599 c 0.036,1.57778 -0.6525,2.71028 -0.1543,4.57312 1.7384,1.31303 -0.079,0.45305 1.6591,1.76667 0.4437,1.8141 -0.2195,2.94657 -0.1717,4.51712 0.1904,0.38364 -0.7834,0.0569 0.7961,1.2916 0.4841,0.55654 -0.048,0.48742 0.4565,1.05776 1.6545,1.3127 0.4967,0.90389 0.7635,1.36685 -0.1375,1.39082 -0.2749,2.78031 -0.4264,4.1635 l 1.1519,0.70589 c 0.2441,-0.53359 -0.2548,-1.52555 0.4633,-1.76664 1.3641,0.62534 0.8421,0.0796 0.9082,-0.099 l 0.6958,-7.03824 1.1275,0.69468 c 0.096,0.85439 -0.4972,1.28626 0.061,2.4252 1.2798,0.98825 0.7973,0.89984 0.8005,1.1063 -0.069,0.35169 -0.073,0.74369 -0.1244,1.10872 l 1.1296,0.69598 0.1507,-1.52479 1.1276,0.69467 -0.3503,3.54433 c 0.025,0.23367 -0.5364,0.11066 0.7988,1.14736 0.5661,0.93763 -0.011,1.17383 0.1052,1.8334 l 1.1298,0.69601 0.5409,-5.4719 c 0.3233,-1.4523 -0.032,-3.32282 0.7099,-4.51731 0.9739,0.445 0.932,0.25813 1.2066,0.26884 0.6194,0.27516 0.8909,0.33325 0.9011,0.23056 4e-4,-0.60293 0.1,-1.14417 0.1466,-1.71809 l 1.1271,0.69811 c -0.015,0.14484 -0.028,0.28925 -0.03,0.44213 0.5634,0.36608 1.6925,1.09962 2.2547,1.46505 -0.1039,0.80382 -0.1756,1.62729 -0.2564,2.44508 l 1.1275,0.69464 c 0.2192,-0.51813 -0.2061,-1.43411 0.4198,-1.70105 2.0975,0.83791 0.188,-0.8055 1.2585,-0.60511 1.1447,0.53868 0.9243,0.22863 0.9402,0.0677 0.015,-0.38833 0.088,-0.7406 0.1109,-1.12208 l 1.1625,0.71615 c -0.04,0.0564 -0.062,0.1261 -0.069,0.20376 0.7626,0.52724 1.5479,1.06796 2.3328,1.60959 -0.055,0.0645 -0.088,0.14201 -0.1179,0.22061 l 1.1407,0.70271 c 0,-0.0975 0,-0.18742 0.026,-0.26913 l 1.1277,0.69467 -0.048,0.49278 1.0732,0.66113 c 0.03,-0.0816 0.088,-0.1469 0.176,-0.19249 0.5475,0.27314 1.0827,0.53869 1.6201,0.80603 1.5942,0.59628 -0.6252,-1.16898 1.5212,-0.22855 0.4152,0.0466 0.2977,-0.23381 0.3285,-0.42326 l 1.1405,0.70266 -0.048,0.49278 0.3984,0.24542 0.6266,-6.3393 c -0.8585,-0.31355 -0.2456,0.28619 -0.3637,0.43127 l -1.0381,-0.63966 c -0.5553,-0.68784 1.0711,-0.0384 -0.7719,-1.51386 -0.438,-0.53517 -0.1652,-0.63288 -0.1282,-0.87598 -0.6231,-0.3592 -1.8721,-1.07937 -2.495,-1.43849 0.012,0.0358 0.039,0.11262 0.06,0.15556 l -0.9273,-0.57126 c -0.089,-0.18014 -0.1668,-0.35273 -0.8665,-0.90562 -0.1742,-0.17438 -0.3277,-0.33603 -0.4451,-0.47546 l -1.1616,-0.72222 c -0.6526,-0.18128 1.9965,1.73442 -3.0659,-1.22819 -0.4253,-0.77967 0.01,-1.03277 -0.07,-1.59757 -0.1571,-0.34886 0.7266,-0.062 -0.8199,-1.26101 -0.5279,-0.96172 0.073,-1.22922 -0.081,-1.96128 -0.082,-0.12863 -0.3938,-0.39646 -0.8493,-0.75131 -0.1923,-0.23397 -0.2479,-0.38371 -0.3053,-0.53412 l -1.1756,-0.72418 c -0.099,0.74958 -0.127,1.54167 -0.1557,2.33383 l -1.0596,-0.65747 c 0.033,-0.32953 0.04,-0.67426 0.026,-1.03243 l -1.128,-0.69026 c -0.3104,0.23488 0.3032,1.04088 -0.5155,0.96219 -1.453,-1.17437 -0.366,-0.79289 -0.6216,-1.23341 -0.2669,-0.44696 0.9233,-0.003 -0.7786,-1.32803 -0.5445,-0.79725 0.055,-0.89188 -0.1298,-1.46752 -0.061,-0.11533 -0.3936,-0.39731 -0.8603,-0.75999 -0.4787,-1.08932 0.058,-1.55395 -0.026,-2.39989 0.1312,-1.18834 0.1807,-2.42549 0.3675,-3.57888 0,-0.0962 -0.2748,-0.35724 -0.8883,-0.82563 -0.4528,-1.72399 0.1697,-2.7869 0.1343,-4.25465 l -1.1298,-0.69599 c -0.1409,1.27704 -0.268,2.56202 -0.4029,3.84088 -0.044,0.19815 0.1056,0.51627 -0.3111,0.48411 -1.5795,-0.74244 -0.7676,-7e-5 -0.9478,0.12487 -0.2346,0.55425 0.1637,1.49926 -0.4544,1.81733 -1.2014,-0.57315 -0.9244,-0.22617 -0.9296,-0.057 0.022,0.37874 -0.068,0.6893 -0.1161,1.02547 l -1.0838,-0.67229 c 0.1767,-1.31801 0.3077,-2.66497 0.4179,-4.02442 -0.235,-0.41056 0.8529,-0.0135 -0.8159,-1.30168 -0.4867,-1.14169 0.077,-1.63928 -0.015,-2.53771 l -1.1493,-0.70807 c -0.042,0.57558 -0.1689,1.10021 -0.1225,1.73084 -0.024,0.0934 -0.2224,0.0777 -0.6959,-0.10835 -0.3538,-0.17705 -0.6967,-0.34738 -1.017,-0.50336 -0.3346,-0.13278 -0.5662,-0.20156 -0.6412,-0.17309 -0.3475,1.08877 0.062,2.6452 -0.6451,3.51169 -1.638,-0.76363 -0.7477,0.0426 -0.9626,0.16079 -0.209,0.41314 0.2038,1.20917 -0.4106,1.37199 -1.7411,-0.80901 -0.4916,0.2367 -1.1942,0.0727 -1.4074,-0.66761 -0.897,-0.14231 -0.9607,0.0233 -0.1292,1.5514 -0.3707,3.03373 -0.4321,4.6268 l -1.0389,-0.63526 c -0.017,-0.29878 0.011,-0.57152 0.057,-0.82885 l -1.2412,-0.76086 c -0.014,0.62688 -0.2294,1.12961 -0.065,1.86732 0.012,0.13145 -0.069,0.20881 -0.814,-0.12861 -0.6181,-0.64858 -0.1308,-0.61754 -0.2862,-0.98158 l -1.1186,-0.69373 c -0.058,0.0914 -0.069,0.21156 -0.4534,0.10065 -1.7447,-1.38205 0.6247,-0.24446 -1.4365,-1.81969 -0.8065,-0.81312 0.7249,-0.19181 -0.9848,-1.55667 -0.1739,-0.17667 -0.3029,-0.32506 -0.4312,-0.47313 l -1.1411,-0.69832 c -0.029,0.14538 -0.03,0.30595 -0.2262,0.34756 -0.5151,-0.24172 -0.9281,-0.41981 -1.3186,-0.58336 l -0.7227,-0.44523 c 0.083,-0.0934 0.129,-0.2087 0.1652,-0.33104 l -1.3104,-0.8073 c -0.017,0.0175 -0.065,0.0398 -0.081,0.0576 -1.5731,-0.92966 -2.4487,-1.4078 -2.1741,-1.16055 -0.1745,0.0684 -0.047,0.32476 -0.037,0.50662 l -1.0489,-0.6508 c -0.4662,-0.61649 1.0329,-0.0279 -0.7547,-1.45303 -0.2546,-0.33184 0.011,-0.3467 -1.1027,-1.20314 -0.6675,-0.76124 0.3938,-0.46049 -0.5332,-1.38122 -2.3903,-1.02205 0.533,1.24913 -1.7213,0.31178 -0.6011,-0.82261 -0.084,-0.95815 -0.1542,-1.45478 -0.5632,-0.36601 -1.6991,-1.10311 -2.2613,-1.46809 -0.3504,-0.70148 0.9813,-0.37147 -0.554,-1.79884 -0.3127,-0.11506 -0.5806,-0.20236 -0.7796,-0.247 l -0.869,-0.53061 c 0.3069,-1.89922 0.4689,-3.88876 0.562,-5.91976 -0.3976,-0.21313 -1.2057,-0.64724 -1.6031,-0.86026 l -0.6553,-0.40363 c 0.2161,-1.10395 0.2176,-2.34002 0.3916,-3.47092 -0.015,-0.19756 0.43,-0.1153 -0.8292,-1.07366 -0.1826,-0.21009 -0.2749,-0.36465 -0.345,-0.50525 l -1.0489,-0.64904 c -0.2775,0.98963 0.099,2.38349 -0.5967,3.11526 -1.9681,-0.80949 -0.4364,0.54994 -0.9938,0.61516 l -1.095,-0.6746 c 0.1671,-1.19884 0.2565,-2.44606 0.3935,-3.66091 -0.013,-0.1051 -0.095,-0.25244 -0.2559,-0.44837 -1.3816,-1.0489 -0.7735,-0.88248 -0.8228,-1.11585 0.097,-0.73347 0.1349,-1.50216 0.2218,-2.24218 z"
           style="fill:#ffffff;stroke-width:0.228763"
           id="path1842" />
      </g>
      <g
         transform="matrix(0.84593836,0,0,0.84593836,-243.85279,27.348379)"
         id="g2505">
        <path
           d="m 1270.126,975.75403 a 287.48373,287.48373 0 0 1 -20.0313,105.43287 L 982.64227,975.75403 Z"
           transform="matrix(-0.93091595,-0.36523349,-0.36523349,0.93091595,0,0)"
           inkscape:transform-center-y="-72.418893"
           inkscape:transform-center-x="-195.42736"
           inkscape:export-ydpi="11.569163"
           inkscape:export-xdpi="11.569163"
           id="path4147"
           style="color:#000000;display:inline;overflow:visible;visibility:visible;fill:none;fill-opacity:1;fill-rule:nonzero;stroke:none;stroke-width:0.74005;stroke-linecap:round;stroke-linejoin:miter;stroke-miterlimit:4;stroke-dasharray:none;stroke-dashoffset:0;stroke-opacity:1;marker:none;enable-background:accumulate"
           sodipodi:type="arc"
           sodipodi:cx="982.64227"
           sodipodi:cy="975.75403"
           sodipodi:rx="287.48373"
           sodipodi:ry="287.48373"
           sodipodi:start="0"
           sodipodi:end="0.37550666"
           sodipodi:arc-type="slice" />
        <g
           transform="matrix(-0.48637079,0,0,0.48637079,-1983.616,294.64672)"
           id="g2182">
          <path
             id="path2176"
             d="m -1122.7404,330.68256 c 10.0555,0.11004 20.1219,0.91012 30.1231,2.43945 110.09347,8.07078 188.69702,121.86564 173.59372,227.81836 -3.3387,74.74735 -68.42098,122.70175 -90.14652,190.16406 -14.6497,61.31797 37.98544,99.30615 88.81644,121.77735 a 388.46503,388.46503 0 0 1 -273.99214,113.46289 388.46503,388.46503 0 0 1 -260.9004,-101.23633 c 3.0685,-3.83999 6.1461,-7.64338 9.2246,-11.39648 28.6914,-45.08949 89.365,-67.17951 99.6035,-123.22852 0.411,-54.33861 -60.7137,-70.5086 -99.1738,-92.89648 -36.0793,-16.90359 -78.9385,-61.1863 -53.4766,-102.53321 40.4314,-43.23964 118.9891,-14.18939 152.7441,-67.94336 30.0239,-94.00458 126.3806,-157.49147 223.584,-156.42773 z"
             style="fill:#f7e43d;fill-opacity:1;stroke:#000000;stroke-opacity:1"
             inkscape:connector-curvature="0" />
          <path
             inkscape:connector-curvature="0"
             id="path2178"
             d="m -1276.7622,541.86494 c 21.0175,-1.27066 36.2042,-20.55995 39.7771,-40.15163 3.7101,-16.74255 3.0693,-35.35496 -4.8254,-50.76681 -7.4548,-10.19531 -23.6835,-12.00928 -32.4022,-2.42657 -14.9212,13.40441 -18.6656,34.3486 -19.9054,53.41509 -1.8117,14.7237 1.4423,34.27318 17.3559,39.92992 z"
             style="fill:#000000" />
          <path
             style="fill:#f23a0d;fill-opacity:1;stroke:#000000;stroke-opacity:1"
             d="m -1350.0224,491.43404 c 3.1217,45.92506 25.7155,88.30442 66.326,107.01159 25.9806,11.96797 27.681,36.93963 21.1193,55.67102 -10.8421,30.95082 -50.3627,45.81427 -84.6715,50.10279 -27.6171,-2.03474 -52.1635,-18.75093 -77.9204,-28.36314 -39.9156,-18.62123 -75.7772,-48.41784 -98.6471,-86.16692 -21.1181,-29.72124 3.6575,-66.67067 38.9012,-56.70325 52.869,-5.55198 104.5016,-10.07765 134.8925,-41.55209 z"
             id="path2180"
             inkscape:connector-curvature="0"
             sodipodi:nodetypes="csaccccc" />
        </g>
      </g>
      <g
         id="g2223">
        <text
           xml:space="preserve"
           id="text2215"
           style="font-size:187.50000000000000000px;line-height:1.25;font-family:serif;-inkscape-font-specification:serif;white-space:pre;shape-inside:url(#rect2217);" />
      </g>
      <path
         inkscape:connector-curvature="0"
         id="path1810"
         style="fill:#3d3d3d;fill-opacity:1;stroke-width:20;stroke-linecap:round;stop-color:#000000"
         d="m 118.44531,37.794922 c -2.79733,0 -5.04883,2.253352 -5.04883,5.050781 v 57.900387 c 0,2.79743 2.2515,5.04883 5.04883,5.04883 h 5.15039 c -0.0658,0.32631 -0.10156,0.66351 -0.10156,1.00977 v 11.56445 a 41.742566,46.287117 0 0 0 -36.355468,43.8125 41.742566,46.287117 0 0 0 41.742188,46.28711 41.742566,46.287117 0 0 0 34.85742,-22.42187 l 64.5625,57.7539 c 1.21599,1.08773 2.89476,1.29665 4.29492,0.68945 l 26.44532,0.0293 c 1.92464,7.64377 8.79188,13.30752 17.03906,13.35352 l 9.91797,0.0547 c 9.74779,0.0544 17.59532,-7.74816 17.5957,-17.49609 3.8e-4,-9.74792 -7.84791,-17.64094 -17.5957,-17.69531 l -9.91797,-0.0547 c -8.46239,-0.0472 -15.48415,5.83166 -17.19141,13.75977 l -26.73047,-0.0293 -64.5,-57.69922 a 41.742566,46.287117 0 0 0 2.96485,-16.53125 41.742566,46.287117 0 0 0 -36.56446,-40.54687 c 0.12213,-0.43622 0.20899,-0.88899 0.20899,-1.36524 V 106.8047 c 0,-0.34625 -0.0358,-0.68346 -0.10156,-1.00977 h 5.15039 c 2.79744,0 5.04882,-2.2514 5.04882,-5.04883 V 42.845703 c 0,-2.797429 -2.25138,-5.050781 -5.04882,-5.050781 z"
         transform="matrix(0.93750001,0,0,0.93750001,-1597.7816,358.1044)" />
    </g>
    <g
       transform="matrix(-0.28222222,0,0,0.28222222,-238.04124,139.09937)"
       id="g4207">
      <g
         id="g4173">
        <g
           id="g4157">
          <path
             sodipodi:arc-type="slice"
             sodipodi:end="0.37550666"
             sodipodi:start="0"
             sodipodi:ry="388.46503"
             sodipodi:rx="388.46503"
             sodipodi:cy="597.88"
             sodipodi:cx="-1194.3461"
             sodipodi:type="arc"
             style="color:#000000;display:inline;overflow:visible;visibility:visible;opacity:1;fill:#5eda5e;fill-opacity:1;fill-rule:nonzero;stroke:none;stroke-width:1;stroke-linecap:round;stroke-linejoin:miter;stroke-miterlimit:4;stroke-dasharray:none;stroke-dashoffset:0;stroke-opacity:1;marker:none;enable-background:accumulate"
             id="circle4145"
             inkscape:export-xdpi="11.569163"
             inkscape:export-ydpi="11.569163"
             d="m -805.88104,597.88 a 388.46503,388.46503 0 0 1 -27.0675,142.4672 L -1194.3461,597.88 Z" />
          <g
             inkscape:transform-center-y="-178.0559"
             transform="rotate(-45,-1194.3999,597.89321)"
             inkscape:transform-center-x="-177.77122"
             id="g4153">
            <path
               sodipodi:arc-type="slice"
               sodipodi:end="0.37550666"
               sodipodi:start="0"
               sodipodi:ry="388.46503"
               sodipodi:rx="388.46503"
               sodipodi:cy="597.88"
               sodipodi:cx="-1194.3461"
               sodipodi:type="arc"
               style="color:#000000;display:inline;overflow:visible;visibility:visible;opacity:1;fill:#5eda5e;fill-opacity:1;fill-rule:nonzero;stroke:none;stroke-width:1;stroke-linecap:round;stroke-linejoin:miter;stroke-miterlimit:4;stroke-dasharray:none;stroke-dashoffset:0;stroke-opacity:1;marker:none;enable-background:accumulate"
               id="path4149"
               inkscape:export-xdpi="11.569163"
               inkscape:export-ydpi="11.569163"
               d="m -805.88104,597.88 a 388.46503,388.46503 0 0 1 -27.0675,142.4672 L -1194.3461,597.88 Z" />
            <path
               sodipodi:arc-type="slice"
               transform="rotate(-21.421953)"
               inkscape:transform-center-y="-72.418893"
               inkscape:transform-center-x="-195.42736"
               inkscape:export-ydpi="11.569163"
               inkscape:export-xdpi="11.569163"
               id="path4151"
               style="color:#000000;display:inline;overflow:visible;visibility:visible;opacity:1;fill:none;fill-opacity:1;fill-rule:nonzero;stroke:none;stroke-width:1;stroke-linecap:round;stroke-linejoin:miter;stroke-miterlimit:4;stroke-dasharray:none;stroke-dashoffset:0;stroke-opacity:1;marker:none;enable-background:accumulate"
               sodipodi:type="arc"
               sodipodi:cx="-1330.53"
               sodipodi:cy="119.63008"
               sodipodi:rx="388.46503"
               sodipodi:ry="388.46503"
               sodipodi:start="0"
               sodipodi:end="0.37550666"
               d="m -942.065,119.63008 a 388.46503,388.46503 0 0 1 -27.0675,142.46719 L -1330.53,119.63008 Z" />
          </g>
        </g>
        <g
           id="g4163"
           inkscape:transform-center-x="111.51659"
           inkscape:transform-center-y="-196.01628"
           transform="rotate(-91.220336,-1196.5266,597.08363)">
          <path
             sodipodi:arc-type="slice"
             inkscape:export-ydpi="11.569163"
             inkscape:export-xdpi="11.569163"
             id="path4165"
             style="color:#000000;display:inline;overflow:visible;visibility:visible;opacity:1;fill:#5eda5e;fill-opacity:1;fill-rule:nonzero;stroke:none;stroke-width:1;stroke-linecap:round;stroke-linejoin:miter;stroke-miterlimit:4;stroke-dasharray:none;stroke-dashoffset:0;stroke-opacity:1;marker:none;enable-background:accumulate"
             sodipodi:type="arc"
             sodipodi:cx="-1194.3461"
             sodipodi:cy="597.88"
             sodipodi:rx="388.46503"
             sodipodi:ry="388.46503"
             sodipodi:start="0"
             sodipodi:end="0.37550666"
             d="m -805.88104,597.88 a 388.46503,388.46503 0 0 1 -27.0675,142.4672 L -1194.3461,597.88 Z" />
          <g
             id="g4167"
             inkscape:transform-center-x="-177.77122"
             transform="rotate(-45,-1194.3999,597.89321)"
             inkscape:transform-center-y="-178.0559">
            <path
               sodipodi:arc-type="slice"
               inkscape:export-ydpi="11.569163"
               inkscape:export-xdpi="11.569163"
               id="path4169"
               style="color:#000000;display:inline;overflow:visible;visibility:visible;opacity:1;fill:#5eda5e;fill-opacity:1;fill-rule:nonzero;stroke:none;stroke-width:1;stroke-linecap:round;stroke-linejoin:miter;stroke-miterlimit:4;stroke-dasharray:none;stroke-dashoffset:0;stroke-opacity:1;marker:none;enable-background:accumulate"
               sodipodi:type="arc"
               sodipodi:cx="-1194.3461"
               sodipodi:cy="597.88"
               sodipodi:rx="388.46503"
               sodipodi:ry="388.46503"
               sodipodi:start="0"
               sodipodi:end="0.37550666"
               d="m -805.88104,597.88 a 388.46503,388.46503 0 0 1 -27.0675,142.4672 L -1194.3461,597.88 Z" />
            <path
               sodipodi:arc-type="slice"
               sodipodi:end="0.37550666"
               sodipodi:start="0"
               sodipodi:ry="388.46503"
               sodipodi:rx="388.46503"
               sodipodi:cy="119.63008"
               sodipodi:cx="-1330.53"
               sodipodi:type="arc"
               style="color:#000000;display:inline;overflow:visible;visibility:visible;opacity:1;fill:none;fill-opacity:1;fill-rule:nonzero;stroke:none;stroke-width:1;stroke-linecap:round;stroke-linejoin:miter;stroke-miterlimit:4;stroke-dasharray:none;stroke-dashoffset:0;stroke-opacity:1;marker:none;enable-background:accumulate"
               id="path4171"
               inkscape:export-xdpi="11.569163"
               inkscape:export-ydpi="11.569163"
               inkscape:transform-center-x="-195.42736"
               inkscape:transform-center-y="-72.418893"
               transform="rotate(-21.421953)"
               d="m -942.065,119.63008 a 388.46503,388.46503 0 0 1 -27.0675,142.46719 L -1330.53,119.63008 Z" />
          </g>
        </g>
      </g>
      <g
         transform="rotate(-176.8347,-1194.4644,597.38437)"
         inkscape:transform-center-y="114.05058"
         inkscape:transform-center-x="18.090666"
         id="g4185">
        <g
           id="g4187">
          <path
             sodipodi:arc-type="slice"
             inkscape:export-ydpi="11.569163"
             inkscape:export-xdpi="11.569163"
             id="path4189-6"
             style="color:#000000;display:inline;overflow:visible;visibility:visible;opacity:1;fill:#5eda5e;fill-opacity:1;fill-rule:nonzero;stroke:none;stroke-width:1;stroke-linecap:round;stroke-linejoin:miter;stroke-miterlimit:4;stroke-dasharray:none;stroke-dashoffset:0;stroke-opacity:1;marker:none;enable-background:accumulate"
             sodipodi:type="arc"
             sodipodi:cx="-1194.3461"
             sodipodi:cy="597.88"
             sodipodi:rx="388.46503"
             sodipodi:ry="388.46503"
             sodipodi:start="0"
             sodipodi:end="0.37550666"
             d="m -805.88104,597.88 a 388.46503,388.46503 0 0 1 -27.0675,142.4672 L -1194.3461,597.88 Z" />
          <g
             id="g4191"
             inkscape:transform-center-x="-177.77122"
             transform="rotate(-45,-1194.3999,597.89321)"
             inkscape:transform-center-y="-178.0559">
            <path
               sodipodi:arc-type="slice"
               inkscape:export-ydpi="11.569163"
               inkscape:export-xdpi="11.569163"
               id="path4193"
               style="color:#000000;display:inline;overflow:visible;visibility:visible;opacity:1;fill:#5eda5e;fill-opacity:1;fill-rule:nonzero;stroke:none;stroke-width:1;stroke-linecap:round;stroke-linejoin:miter;stroke-miterlimit:4;stroke-dasharray:none;stroke-dashoffset:0;stroke-opacity:1;marker:none;enable-background:accumulate"
               sodipodi:type="arc"
               sodipodi:cx="-1194.3461"
               sodipodi:cy="597.88"
               sodipodi:rx="388.46503"
               sodipodi:ry="388.46503"
               sodipodi:start="0"
               sodipodi:end="0.37550666"
               d="m -805.88104,597.88 a 388.46503,388.46503 0 0 1 -27.0675,142.4672 L -1194.3461,597.88 Z" />
            <path
               sodipodi:arc-type="slice"
               sodipodi:end="0.37550666"
               sodipodi:start="0"
               sodipodi:ry="388.46503"
               sodipodi:rx="388.46503"
               sodipodi:cy="119.63008"
               sodipodi:cx="-1330.53"
               sodipodi:type="arc"
               style="color:#000000;display:inline;overflow:visible;visibility:visible;opacity:1;fill:none;fill-opacity:1;fill-rule:nonzero;stroke:none;stroke-width:1;stroke-linecap:round;stroke-linejoin:miter;stroke-miterlimit:4;stroke-dasharray:none;stroke-dashoffset:0;stroke-opacity:1;marker:none;enable-background:accumulate"
               id="path4195"
               inkscape:export-xdpi="11.569163"
               inkscape:export-ydpi="11.569163"
               inkscape:transform-center-x="-195.42736"
               inkscape:transform-center-y="-72.418893"
               transform="rotate(-21.421953)"
               d="m -942.065,119.63008 a 388.46503,388.46503 0 0 1 -27.0675,142.46719 L -1330.53,119.63008 Z" />
          </g>
        </g>
        <g
           transform="rotate(-91.220336,-1196.5266,597.08363)"
           inkscape:transform-center-y="-196.01628"
           inkscape:transform-center-x="111.51659"
           id="g4197">
          <path
             sodipodi:arc-type="slice"
             sodipodi:end="0.37550666"
             sodipodi:start="0"
             sodipodi:ry="388.46503"
             sodipodi:rx="388.46503"
             sodipodi:cy="597.88"
             sodipodi:cx="-1194.3461"
             sodipodi:type="arc"
             style="color:#000000;display:inline;overflow:visible;visibility:visible;opacity:1;fill:#5eda5e;fill-opacity:1;fill-rule:nonzero;stroke:none;stroke-width:1;stroke-linecap:round;stroke-linejoin:miter;stroke-miterlimit:4;stroke-dasharray:none;stroke-dashoffset:0;stroke-opacity:1;marker:none;enable-background:accumulate"
             id="path4199"
             inkscape:export-xdpi="11.569163"
             inkscape:export-ydpi="11.569163"
             d="m -805.88104,597.88 a 388.46503,388.46503 0 0 1 -27.0675,142.4672 L -1194.3461,597.88 Z" />
          <g
             inkscape:transform-center-y="-178.0559"
             transform="rotate(-45,-1194.3999,597.89321)"
             inkscape:transform-center-x="-177.77122"
             id="g4201">
            <path
               sodipodi:arc-type="slice"
               sodipodi:end="0.37550666"
               sodipodi:start="0"
               sodipodi:ry="388.46503"
               sodipodi:rx="388.46503"
               sodipodi:cy="597.88"
               sodipodi:cx="-1194.3461"
               sodipodi:type="arc"
               style="color:#000000;display:inline;overflow:visible;visibility:visible;opacity:1;fill:#5eda5e;fill-opacity:1;fill-rule:nonzero;stroke:none;stroke-width:1;stroke-linecap:round;stroke-linejoin:miter;stroke-miterlimit:4;stroke-dasharray:none;stroke-dashoffset:0;stroke-opacity:1;marker:none;enable-background:accumulate"
               id="path4203"
               inkscape:export-xdpi="11.569163"
               inkscape:export-ydpi="11.569163"
               d="m -805.88104,597.88 a 388.46503,388.46503 0 0 1 -27.0675,142.4672 L -1194.3461,597.88 Z" />
            <path
               sodipodi:arc-type="slice"
               transform="rotate(-21.421953)"
               inkscape:transform-center-y="-72.418893"
               inkscape:transform-center-x="-195.42736"
               inkscape:export-ydpi="11.569163"
               inkscape:export-xdpi="11.569163"
               id="path4205"
               style="color:#000000;display:inline;overflow:visible;visibility:visible;opacity:1;fill:none;fill-opacity:1;fill-rule:nonzero;stroke:none;stroke-width:1;stroke-linecap:round;stroke-linejoin:miter;stroke-miterlimit:4;stroke-dasharray:none;stroke-dashoffset:0;stroke-opacity:1;marker:none;enable-background:accumulate"
               sodipodi:type="arc"
               sodipodi:cx="-1330.53"
               sodipodi:cy="119.63008"
               sodipodi:rx="388.46503"
               sodipodi:ry="388.46503"
               sodipodi:start="0"
               sodipodi:end="0.37550666"
               d="m -942.065,119.63008 a 388.46503,388.46503 0 0 1 -27.0675,142.46719 L -1330.53,119.63008 Z" />
          </g>
        </g>
      </g>
    </g>
    <g
       transform="matrix(-0.28222222,0,0,0.28222222,-238.04124,139.09937)"
       id="g4312"
       style="fill:#000000;filter:url(#filter4472)">
      <path
         inkscape:connector-curvature="0"
         id="path4314"
         d="m -1196.9761,883.64003 c -56.2968,-6.90571 -115.1103,-4.07983 -168.3902,-26.41627 -51.9627,-41.2496 -106.9732,-92.82282 -112.4484,-163.14552 -7.5577,-76.65638 32.7201,-158.54009 102.0295,-193.79816 32.5209,-10.00246 58.542,25.63978 56.2355,55.39891 -11.0777,32.1523 22.0125,68.56587 55.2344,55.89572 30.8355,-10.86703 73.4114,-32.58436 63.9108,-72.35009 -11.806,-36.66011 -47.1735,-62.71904 -48.9878,-103.33796 -8.2074,-57.57642 34.508,-119.41433 94.3346,-123.80012 57.9709,-8.86469 119.8647,27.31192 137.868,83.68004 18.34303,29.21078 61.03297,13.42374 83.00403,36.92086 13.83642,22.46858 -9.4549,46.53309 -29.06095,55.71877 -20.89987,12.16594 -54.11528,20.95236 -53.89198,50.48084 5.5638,30.45794 38.53452,42.46226 54.12592,66.96462 29.89193,36.44242 59.99448,80.47455 51.83111,130.23143 -6.59106,58.43277 -51.20001,106.23082 -105.13803,126.14391 -57.0503,23.253 -120.0671,23.50196 -180.6565,21.41302 z"
         style="fill:#000000;fill-opacity:1" />
      <path
         inkscape:connector-curvature="0"
         id="path4316"
         d="m -1021.9203,416.27702 c -1.3359,1.82689 -5.5761,1.62378 -7.4765,-0.35813 -2.4932,-2.60011 -7.0294,-16.5618 -8.4614,-26.04301 -0.884,-5.85229 -0.8564,-7.21112 0.1748,-8.62136 0.7664,-1.04816 1.0594,-1.08229 2.8663,-0.33383 5.2575,2.17772 11.7507,15.41381 13.2334,26.9757 1.6009,2.29208 1.6035,6.36753 -0.3366,8.38063 z"
         style="fill:#000000"
         sodipodi:nodetypes="csssscc" />
      <path
         sodipodi:nodetypes="csaccccc"
         inkscape:connector-curvature="0"
         id="path4318"
         d="m -1013.0065,398.11577 c -1.6964,24.95642 -13.9742,47.98605 -36.0426,58.15183 -14.1183,6.50359 -15.0423,20.07359 -11.4766,30.25253 5.8918,16.81918 27.3679,24.89622 46.0119,27.22667 15.00754,-1.10571 28.34644,-10.18956 42.3432,-15.41299 21.69074,-10.11908 41.17855,-26.31104 53.60641,-46.8245 11.47593,-16.151 -1.98754,-36.22992 -21.13954,-30.81346 -28.72985,-3.01704 -56.78785,-5.47636 -73.30277,-22.58008 z"
         style="fill:#000000" />
    </g>
    <circle
       transform="scale(-1,1)"
       style="color:#000000;display:inline;overflow:visible;visibility:visible;fill:#2ca02c;fill-opacity:1;fill-rule:nonzero;stroke:#282828;stroke-width:0.282222;stroke-linecap:round;stroke-linejoin:miter;stroke-miterlimit:4;stroke-dasharray:none;stroke-dashoffset:0;stroke-opacity:1;marker:none;enable-background:accumulate"
       id="path4290"
       cx="-99.029762"
       cy="307.83438"
       inkscape:export-xdpi="11.569163"
       inkscape:export-ydpi="11.569163"
       r="109.63346" />
    <path
       inkscape:connector-curvature="0"
       style="fill:#f7e43d;fill-opacity:1;stroke:#000000;stroke-width:0.282222;stroke-opacity:1"
       d="m 119.23846,232.42534 c 2.8379,0.031 5.67885,0.25685 8.5014,0.68846 31.07083,2.27776 53.2545,34.3932 48.99201,64.29541 -0.94226,21.09536 -19.30992,34.62916 -25.44134,53.66852 -4.13448,17.30529 10.72032,28.0264 25.06596,34.36827 A 109.63346,109.63346 0 0 1 99.029809,417.46775 109.63346,109.63346 0 0 1 25.397922,388.89661 c 0.865999,-1.08373 1.734572,-2.15713 2.60339,-3.21634 8.097365,-12.72525 25.220792,-18.95955 28.110324,-34.77783 0.115993,-15.33556 -17.13475,-19.89909 -27.989059,-26.21745 -10.182369,-4.77056 -22.2781928,-17.26813 -15.092273,-28.93715 11.410631,-12.20318 33.581379,-4.00456 43.10779,-19.17512 8.473406,-26.53018 35.667411,-44.44759 63.100366,-44.14738 z"
       id="path4237" />
    <path
       style="fill:#000000;stroke-width:0.282222"
       d="m 75.770085,292.0257 c 5.931605,-0.35861 10.21763,-5.80248 11.225981,-11.33169 1.047073,-4.72512 0.866225,-9.97795 -1.361835,-14.32752 -2.10391,-2.87734 -6.68401,-3.38928 -9.144621,-0.68483 -4.211094,3.78302 -5.267847,9.69394 -5.617746,15.07493 -0.511302,4.15535 0.407049,9.67265 4.898221,11.26911 z"
       id="path4259"
       inkscape:connector-curvature="0" />
    <path
       sodipodi:nodetypes="csaccccc"
       inkscape:connector-curvature="0"
       id="path4261"
       d="m 55.094429,277.79298 c 0.881013,12.96107 7.257485,24.92147 18.718671,30.20104 7.332302,3.37763 7.812193,10.42519 5.960335,15.7116 -3.059881,8.73501 -14.213473,12.92981 -23.896178,14.14012 -7.79416,-0.57425 -14.721685,-5.29193 -21.990877,-8.0047 -11.265047,-5.25533 -21.386004,-13.66459 -27.8403924,-24.31822 -5.96000274,-8.388 1.0322249,-18.81595 10.9787834,-16.00292 14.920795,-1.56689 29.49267,-2.84414 38.069658,-11.72692 z"
       style="fill:#f23a0d;fill-opacity:1;stroke:#000000;stroke-width:0.282222;stroke-opacity:1" />
    <path
       sodipodi:arc-type="slice"
       sodipodi:end="0.37550666"
       sodipodi:start="0"
       sodipodi:ry="109.63346"
       sodipodi:rx="109.63346"
       sodipodi:cy="250.19272"
       sodipodi:cx="-204.71249"
       sodipodi:type="arc"
       style="color:#000000;display:inline;overflow:visible;visibility:visible;fill:none;fill-opacity:1;fill-rule:nonzero;stroke:none;stroke-width:0.282222;stroke-linecap:round;stroke-linejoin:miter;stroke-miterlimit:4;stroke-dasharray:none;stroke-dashoffset:0;stroke-opacity:1;marker:none;enable-background:accumulate"
       id="path4147-6"
       inkscape:export-xdpi="11.569163"
       inkscape:export-ydpi="11.569163"
       inkscape:transform-center-x="-195.42736"
       inkscape:transform-center-y="-72.418893"
       transform="matrix(-0.93091594,-0.36523351,-0.36523351,0.93091594,0,0)"
       d="m -95.079033,250.19272 a 109.63346,109.63346 0 0 1 -7.639047,40.20741 l -101.99441,-40.20741 z" />
    <text
       id="text2483"
       y="182.94048"
       x="-65.011909"
       style="font-size:52.9167px;line-height:1.25;font-family:serif;-inkscape-font-specification:serif;stroke-width:0.264583"
       xml:space="preserve"><tspan
         style="font-style:normal;font-variant:normal;font-weight:normal;font-stretch:normal;font-family:'Fira Mono';-inkscape-font-specification:'Fira Mono';stroke-width:0.264583"
         y="182.94048"
         x="-65.011909"
         id="tspan2481"
         sodipodi:role="line">&lt;HTML&gt;</tspan></text>
    <text
       xml:space="preserve"
       style="font-size:10.5833px;line-height:1.25;font-family:serif;-inkscape-font-specification:serif;stroke-width:0.0766928"
       x="4.574954"
       y="14.013201"
       id="text2487"><tspan
         sodipodi:role="line"
         id="tspan2485"
         x="4.574954"
         y="14.013201"
         style="font-style:normal;font-variant:normal;font-weight:normal;font-stretch:normal;font-family:'Fira Sans Extra Condensed';-inkscape-font-specification:'Fira Sans Extra Condensed, ';fill:#f9f9f9;stroke-width:0.0766928">Coding for beginners Workshop #2: HTML</tspan></text>
    <text
       transform="scale(0.9894173,1.0106959)"
       id="text2513"
       y="50.135174"
       x="66.655602"
       style="font-size:15.5479px;line-height:1.25;font-family:serif;-inkscape-font-specification:serif;stroke-width:0.062594"
       xml:space="preserve"><tspan
         style="font-style:normal;font-variant:normal;font-weight:normal;font-stretch:normal;font-family:'Fira Sans Extra Condensed';-inkscape-font-specification:'Fira Sans Extra Condensed, ';fill:#f9f9f9;stroke-width:0.062594"
         y="50.135174"
         x="66.655602"
         id="tspan2511"
         sodipodi:role="line">&lt;html&gt;&lt;/html&gt;</tspan></text>
    <text
       transform="matrix(0.96572234,-0.2198659,0.21523697,0.98649134,0,0)"
       id="text2517"
       y="50.735794"
       x="47.163414"
       style="font-size:8.63772px;line-height:1.25;font-family:serif;-inkscape-font-specification:serif;fill:#f7e43d;fill-opacity:1;stroke-width:0.215943"
       xml:space="preserve"><tspan
         style="font-style:normal;font-variant:normal;font-weight:normal;font-stretch:normal;font-family:Kalam;-inkscape-font-specification:Kalam;fill:#f7e43d;fill-opacity:1;stroke-width:0.215943"
         y="50.735794"
         x="47.163414"
         id="tspan2515"
         sodipodi:role="line">opening tag</tspan></text>
    <text
       transform="matrix(0.96417591,0.22683742,-0.22206172,0.98491165,0,0)"
       xml:space="preserve"
       style="font-size:8.63772px;line-height:1.25;font-family:serif;-inkscape-font-specification:serif;fill:#f7e43d;fill-opacity:1;stroke-width:0.215943"
       x="121.65588"
       y="1.3681265"
       id="text2521"><tspan
         sodipodi:role="line"
         id="tspan2519"
         x="121.65588"
         y="1.3681265"
         style="font-style:normal;font-variant:normal;font-weight:normal;font-stretch:normal;font-family:Kalam;-inkscape-font-specification:Kalam;fill:#f7e43d;fill-opacity:1;stroke-width:0.215943">closing tag</tspan></text>
    <text
       transform="scale(0.9894173,1.0106959)"
       id="text2525"
       y="63.697201"
       x="66.788101"
       style="font-size:8.63772px;line-height:1.25;font-family:serif;-inkscape-font-specification:serif;fill:#f7e43d;fill-opacity:1;stroke-width:0.215943"
       xml:space="preserve"><tspan
         style="font-style:normal;font-variant:normal;font-weight:normal;font-stretch:normal;font-family:Kalam;-inkscape-font-specification:Kalam;fill:#f7e43d;fill-opacity:1;stroke-width:0.215943"
         y="63.697201"
         x="66.788101"
         id="tspan2523"
         sodipodi:role="line">…you’re half way there.</tspan></text>
    <text
       id="text2539"
       y="81.641945"
       x="18.058714"
       style="font-size:9.525px;line-height:1.25;font-family:serif;-inkscape-font-specification:serif;fill:#333333;stroke-width:0.0766928"
       xml:space="preserve"><tspan
         style="font-style:normal;font-variant:normal;font-weight:normal;font-stretch:normal;font-family:'Fira Sans Extra Condensed';-inkscape-font-specification:'Fira Sans Extra Condensed, ';fill:#333333;stroke-width:0.0766928"
         y="81.641945"
         x="18.058714"
         id="tspan2537"
         sodipodi:role="line">WEB PROGRAMMING FOR DOCUMENTARY LINGUISTS</tspan></text>
    <path
       sodipodi:nodetypes="cc"
       inkscape:connector-curvature="0"
       id="path2541"
       d="m 58.54727,41.711948 c -1.721098,21.08069 5.955533,11.601098 7.70502,10.553025"
       style="fill:none;fill-opacity:1;stroke:#f7e43d;stroke-width:2.1185;stroke-linecap:round;stroke-linejoin:miter;stroke-miterlimit:4;stroke-dasharray:none;stroke-opacity:1;marker-end:url(#Arrow1Send)" />
    <path
       style="fill:none;fill-opacity:1;stroke:#f7e43d;stroke-width:2.1185;stroke-linecap:round;stroke-linejoin:miter;stroke-miterlimit:4;stroke-dasharray:none;stroke-opacity:1;marker-end:url(#marker3343)"
       d="m 156.58679,37.359814 c 17.49758,24.888807 -1.05938,12.96114 -2.80887,11.913067"
       id="path3339"
       inkscape:connector-curvature="0"
       sodipodi:nodetypes="cc" />
    <text
       id="text3525"
       y="102.81915"
       x="121.31572"
       style="font-size:52.9167px;line-height:1.25;font-family:serif;-inkscape-font-specification:serif;stroke-width:0.264583"
       xml:space="preserve"><tspan
         style="stroke-width:0.264583"
         y="102.81915"
         x="121.31572"
         id="tspan3523"
         sodipodi:role="line">🗓️</tspan></text>
    <rect
       y="107.17129"
       x="156.40479"
       height="78.610413"
       width="79.970459"
       id="rect3527"
       style="opacity:1;fill:#e9e9e9;fill-opacity:1;stroke:none;stroke-width:5.29167;stroke-linecap:round;stroke-miterlimit:4;stroke-dasharray:none;stroke-opacity:1;stop-color:#000000" />
    <path
       d="m 178.29568,8.4074341 h 35.1282 V 49.766947 h -35.1282 z"
       inkscape:connector-curvature="0"
       style="fill:#ffffff;fill-rule:evenodd;stroke-width:0.227338"
       id="2" />
    <path
       d="m 178.29568,8.4074341 -5.9867,-4.4501318 V 45.307722 l 5.9867,4.460362 V 8.4085708 Z"
       inkscape:connector-curvature="0"
       style="fill:#808080;fill-rule:evenodd;stroke-width:0.227338"
       id="3" />
    <path
       d="m 172.30898,3.9572114 h 35.12819 l 5.91032,4.4501318 h -35.0509 l -5.98852,-4.4501318 z"
       inkscape:connector-curvature="0"
       style="fill:#bfbfbf;fill-rule:evenodd;stroke-width:0.227338"
       id="4" />
    <path
       d="m 178.04743,9.1808363 v 1.2796377 l 0.0573,3.47599 0.14322,5.128052 0.26735,6.216772 0.43922,6.751469 0.65882,6.741922 0.90708,6.16903 1.21262,5.051667 1.73777,0.229202 3.95294,-0.0382 5.40427,-0.229202 6.11083,-0.362876 6.06309,-0.401091 5.26105,-0.381973 3.71424,-0.276942 1.40358,-0.105046 -0.11458,-1.184156 -0.29599,-3.21819 -0.40103,-4.755673 -0.44876,-5.834844 -0.42967,-6.407735 -0.34373,-6.503217 -0.19097,-6.111742 0.0382,-5.233082 H 178.0479 Z"
       inkscape:connector-curvature="0"
       style="fill:#808080;fill-rule:evenodd;stroke-width:0.227338"
       id="5" />
    <path
       d="m 178.30523,8.4169823 v 1.2796373 l 0.0573,3.4759904 0.14322,5.128052 0.26735,6.216772 0.43922,6.751469 0.65882,6.741921 0.90708,6.169031 1.21262,5.051667 1.73777,0.229202 3.94339,-0.0382 5.39472,-0.23875 6.11083,-0.353328 6.05355,-0.410639 5.25149,-0.372425 3.7047,-0.28649 1.40358,-0.105046 -0.11458,-1.184156 -0.28645,-3.208642 -0.41057,-4.765221 -0.43921,-5.825296 -0.42967,-6.407735 -0.34374,-6.503217 -0.19096,-6.111742 0.0286,-5.2330821 h -35.09864 z"
       inkscape:connector-curvature="0"
       style="fill:#ffffff;fill-rule:evenodd;stroke:#000000;stroke-width:0.00954818px;stroke-linecap:round;stroke-linejoin:round"
       id="6" />
    <path
       d="m 184.58793,12.819146 -0.01,-0.162319 -0.0286,-0.162319 -0.0477,-0.152771 -0.0668,-0.152771 -0.0764,-0.143222 -0.10503,-0.133902 -0.10503,-0.114578 -0.12413,-0.10503 -0.13367,-0.09548 -0.15278,-0.07639 -0.15277,-0.05729 -0.15277,-0.03819 -0.17186,-0.02864 h -0.16232 l -0.16232,0.0096 -0.16232,0.0382 -0.15277,0.04775 -0.15277,0.06685 -0.14323,0.08595 -0.12412,0.0955 -0.12413,0.114594 -0.10503,0.124144 -0.0859,0.143243 -0.0668,0.143243 -0.0573,0.152794 -0.0382,0.162342 -0.0191,0.152793 v 0.162342 l 0.0191,0.162342 0.0382,0.162341 0.0573,0.152794 0.0668,0.143243 0.0955,0.143243 0.10503,0.124144 0.11458,0.114594 0.13367,0.0955 0.13368,0.08595 0.15277,0.06685 0.16232,0.04775 0.15277,0.02865 0.17186,0.0191 0.16232,-0.0096 0.16232,-0.0191 0.16232,-0.04775 0.15277,-0.0573 0.14323,-0.0764 0.13367,-0.08595 0.12413,-0.105046 0.11457,-0.124144 0.0955,-0.133695 0.0764,-0.143243 0.0668,-0.143243 0.0477,-0.162342 0.0286,-0.152794 0.01,-0.162341 z"
       inkscape:connector-curvature="0"
       style="fill:#808080;fill-rule:evenodd;stroke-width:0.227338"
       id="7" />
    <path
       d="m 210.35846,12.819146 -0.01,0.162342 -0.0286,0.162341 -0.0477,0.162342 -0.0668,0.143243 -0.0764,0.152794 -0.10503,0.124144 -0.10503,0.124145 -0.13367,0.105045 -0.13367,0.0955 -0.15277,0.0764 -0.15277,0.04775 -0.16232,0.0382 -0.16232,0.02865 h -0.16232 l -0.17186,-0.0191 -0.15277,-0.0382 -0.16232,-0.0573 -0.14322,-0.0764 -0.14322,-0.0955 -0.12413,-0.105045 -0.11458,-0.114594 -0.0955,-0.133695 -0.0859,-0.143244 -0.0668,-0.152793 -0.0477,-0.162342 -0.0286,-0.162341 -0.01,-0.162342 0.01,-0.162342 0.0286,-0.162342 0.0477,-0.162341 0.0668,-0.152794 0.0859,-0.143243 0.0955,-0.133693 0.11458,-0.114594 0.12413,-0.114594 0.14322,-0.08595 0.14322,-0.0764 0.15277,-0.0573 0.16232,-0.0382 0.16231,-0.0191 h 0.17187 l 0.16232,0.0191 0.16232,0.0382 0.15277,0.0573 0.14322,0.0764 0.14322,0.08595 0.12413,0.105046 0.11457,0.124145 0.10503,0.133692 0.0764,0.143243 0.0668,0.152794 0.0477,0.152793 0.0286,0.162342 0.01,0.171892 z"
       inkscape:connector-curvature="0"
       style="fill:#808080;fill-rule:evenodd;stroke-width:0.227338"
       id="8" />
    <path
       d="m 178.00924,18.835406 0.7925,31.083857 0.39147,0.267395 -0.83069,-30.424579 -0.35328,-0.92631 z"
       inkscape:connector-curvature="0"
       style="fill:#808080;fill-rule:evenodd;stroke-width:0.227338"
       id="9" />
    <path
       d="m 177.92331,19.140947 1.7855,31.036117 0.38193,0.267395 -1.67093,-30.385932 -0.4965,-0.917989 z"
       inkscape:connector-curvature="0"
       style="fill:#808080;fill-rule:evenodd;stroke-width:0.227338"
       id="10" />
    <text
       id="text3660"
       y="27.063831"
       x="184.38457"
       style="font-size:9.525px;line-height:1.25;font-family:serif;-inkscape-font-specification:serif;stroke-width:0.264583"
       xml:space="preserve"><tspan
         style="font-style:normal;font-variant:normal;font-weight:normal;font-stretch:normal;font-family:'Fira Sans Extra Condensed';-inkscape-font-specification:'Fira Sans Extra Condensed, ';stroke-width:0.264583"
         y="27.063831"
         x="184.38457"
         id="tspan3658"
         sodipodi:role="line">June 29</tspan></text>
    <text
       xml:space="preserve"
       style="font-size:6.50408px;line-height:1.25;font-family:serif;-inkscape-font-specification:serif;stroke-width:0.180669"
       x="184.21315"
       y="34.938679"
       id="text3664"><tspan
         sodipodi:role="line"
         id="tspan3662"
         x="184.21315"
         y="34.938679"
         style="font-style:normal;font-variant:normal;font-weight:normal;font-stretch:normal;font-family:'Fira Sans Extra Condensed';-inkscape-font-specification:'Fira Sans Extra Condensed, ';stroke-width:0.180669">11:30-12:30</tspan></text>
    <text
       transform="scale(1.0597984,0.94357568)"
       id="text3682"
       y="42.915913"
       x="173.37459"
       style="font-size:4.23333px;line-height:1.25;font-family:serif;-inkscape-font-specification:serif;stroke-width:0.135621"
       xml:space="preserve"><tspan
         style="font-style:normal;font-variant:normal;font-weight:normal;font-stretch:normal;font-family:'Fira Sans Extra Condensed';-inkscape-font-specification:'Fira Sans Extra Condensed, ';stroke-width:0.135621"
         y="42.915913"
         x="173.37459"
         id="tspan3680"
         sodipodi:role="line">(New York time)</tspan></text>
  </g>
  <inkscape:templateinfo>
    <inkscape:name>Banner</inkscape:name>
    <inkscape:author>820x315</inkscape:author>
    <inkscape:shortdesc>Fan page cover size</inkscape:shortdesc>
    <inkscape:date>2021-06-16</inkscape:date>
  </inkscape:templateinfo>
  <style
     id="style1883" />
</svg>
